# xmcd
#
# Track frame offsets: 
#        150
#        16723
#        39662
#        57483
#        75432
#        97168
#        118065
#        152908
#        160659
#        181610
#        197669
#        213493
#        229160
#        238528
#
# Disc length: 3535 seconds
#
# Revision: 0
# Processed by: cddbd v1.5.2PL0 Copyright (c) Steve Scherf et al.
# Submitted via: ExactAudioCopy v1.2
#
DISCID=ae0dcd0e
DTITLE=Hans Theessink - 70 Birthday Bash [CD2]
DYEAR=2019
DGENRE=Blues
TTITLE0=70 Birthday Bash
TTITLE1=Leaving at Daybreak
TTITLE2=Old Man Trouble
TTITLE3=If I Needed You
TTITLE4=Stopthat Alabama Bus
TTITLE5=Man with a Broken Heart
TTITLE6=St. James Infirmary
TTITLE7=Sabela
TTITLE8=Awarakadawara
TTITLE9=Lindschi
TTITLE10=Gö du Bleibst Heut Nacht bei Mir
TTITLE11=Sweet Home Chicago
TTITLE12=Glory of Love
TTITLE13=Slow Train
EXTD=
EXTT0=
EXTT1=
EXTT2=
EXTT3=
EXTT4=
EXTT5=
EXTT6=
EXTT7=
EXTT8=
EXTT9=
EXTT10=
EXTT11=
EXTT12=
EXTT13=
PLAYORDER=
